<mxfile host="app.diagrams.net" modified="2022-01-13T10:21:23.273Z" agent="5.0 (Macintosh; Intel Mac OS X 10_15_7) AppleWebKit/537.36 (KHTML, like Gecko) Chrome/96.0.4664.110 Safari/537.36" etag="D1Vpe-Oq9AS-tZD198tj" version="16.2.6" type="github">
  <diagram id="wFE0QG_FPsp0jaGvCLVb" name="Page-1">
    <mxGraphModel dx="1901" dy="864" grid="1" gridSize="10" guides="1" tooltips="1" connect="1" arrows="1" fold="1" page="1" pageScale="1" pageWidth="850" pageHeight="1100" math="0" shadow="0">
      <root>
        <mxCell id="0" />
        <mxCell id="1" parent="0" />
        <mxCell id="YPmyPEObN8RT0c44hAZr-2" value="" style="whiteSpace=wrap;html=1;aspect=fixed;" vertex="1" parent="1">
          <mxGeometry x="50" y="140" width="1660" height="1660" as="geometry" />
        </mxCell>
        <mxCell id="YPmyPEObN8RT0c44hAZr-15" value="" style="rounded=1;whiteSpace=wrap;html=1;fontSize=18;fillColor=#bac8d3;strokeColor=#23445d;" vertex="1" parent="1">
          <mxGeometry x="510" y="270" width="680" height="642.5" as="geometry" />
        </mxCell>
        <mxCell id="YPmyPEObN8RT0c44hAZr-19" value="&lt;font style=&quot;font-size: 25px&quot;&gt;业务组件库&lt;/font&gt;" style="rounded=0;whiteSpace=wrap;html=1;fontSize=18;fillColor=none;strokeColor=none;" vertex="1" parent="1">
          <mxGeometry x="791.25" y="280" width="135" height="70" as="geometry" />
        </mxCell>
        <mxCell id="YPmyPEObN8RT0c44hAZr-27" value="" style="shape=flexArrow;endArrow=classic;html=1;rounded=0;fontSize=18;entryX=0.214;entryY=0.989;entryDx=0;entryDy=0;entryPerimeter=0;" edge="1" parent="1">
          <mxGeometry width="50" height="50" relative="1" as="geometry">
            <mxPoint x="106.22000000000003" y="547.5" as="sourcePoint" />
            <mxPoint x="100.00000000000017" y="129.4799999999999" as="targetPoint" />
            <Array as="points">
              <mxPoint x="105.22000000000003" y="517.5" />
            </Array>
          </mxGeometry>
        </mxCell>
        <mxCell id="YPmyPEObN8RT0c44hAZr-28" value="业务" style="rounded=1;whiteSpace=wrap;html=1;fontSize=18;fillColor=#fad9d5;strokeColor=#ae4132;" vertex="1" parent="1">
          <mxGeometry x="250" y="350" width="120" height="1040" as="geometry" />
        </mxCell>
        <mxCell id="YPmyPEObN8RT0c44hAZr-33" value="" style="rounded=1;whiteSpace=wrap;html=1;fontSize=18;" vertex="1" parent="1">
          <mxGeometry x="580" y="737.36" width="570" height="122.64" as="geometry" />
        </mxCell>
        <mxCell id="YPmyPEObN8RT0c44hAZr-29" value="API请求" style="rounded=1;whiteSpace=wrap;html=1;fontSize=18;fillColor=#b1ddf0;strokeColor=#10739e;" vertex="1" parent="1">
          <mxGeometry x="610" y="770" width="150" height="68.68" as="geometry" />
        </mxCell>
        <mxCell id="YPmyPEObN8RT0c44hAZr-32" value="util方法" style="rounded=1;whiteSpace=wrap;html=1;fontSize=18;fillColor=#d0cee2;strokeColor=#56517e;" vertex="1" parent="1">
          <mxGeometry x="960" y="770" width="165" height="68.68" as="geometry" />
        </mxCell>
        <mxCell id="YPmyPEObN8RT0c44hAZr-35" value="" style="rounded=1;whiteSpace=wrap;html=1;fontSize=18;fillColor=#d5e8d4;strokeColor=#82b366;" vertex="1" parent="1">
          <mxGeometry x="510" y="940" width="697.5" height="480" as="geometry" />
        </mxCell>
        <mxCell id="YPmyPEObN8RT0c44hAZr-36" value="StoryBook展示" style="rounded=1;whiteSpace=wrap;html=1;fontSize=18;fillColor=#f8cecc;strokeColor=#b85450;" vertex="1" parent="1">
          <mxGeometry x="940" y="1030" width="220" height="170" as="geometry" />
        </mxCell>
        <mxCell id="YPmyPEObN8RT0c44hAZr-37" value="" style="rounded=1;whiteSpace=wrap;html=1;fontSize=18;fillColor=#ffe6cc;strokeColor=#d79b00;" vertex="1" parent="1">
          <mxGeometry x="550" y="1040" width="310" height="330" as="geometry" />
        </mxCell>
        <mxCell id="YPmyPEObN8RT0c44hAZr-40" value="Components Npm包" style="rounded=0;whiteSpace=wrap;html=1;fontSize=18;fillColor=none;strokeColor=none;" vertex="1" parent="1">
          <mxGeometry x="656" y="1070" width="100" height="40" as="geometry" />
        </mxCell>
        <mxCell id="YPmyPEObN8RT0c44hAZr-5" value="组件1" style="rounded=1;whiteSpace=wrap;html=1;fontSize=18;fillColor=#fff2cc;strokeColor=#d6b656;" vertex="1" parent="1">
          <mxGeometry x="585" y="1150" width="110" height="50" as="geometry" />
        </mxCell>
        <mxCell id="YPmyPEObN8RT0c44hAZr-10" value="组件4" style="rounded=1;whiteSpace=wrap;html=1;fontSize=18;fillColor=#fff2cc;strokeColor=#d6b656;" vertex="1" parent="1">
          <mxGeometry x="730" y="1230" width="110" height="50" as="geometry" />
        </mxCell>
        <mxCell id="YPmyPEObN8RT0c44hAZr-11" value="组件2" style="rounded=1;whiteSpace=wrap;html=1;fontSize=18;fillColor=#fff2cc;strokeColor=#d6b656;" vertex="1" parent="1">
          <mxGeometry x="720" y="1150" width="110" height="50" as="geometry" />
        </mxCell>
        <mxCell id="YPmyPEObN8RT0c44hAZr-12" value="组件3" style="rounded=1;whiteSpace=wrap;html=1;fontSize=18;fillColor=#fff2cc;strokeColor=#d6b656;" vertex="1" parent="1">
          <mxGeometry x="585" y="1230" width="110" height="50" as="geometry" />
        </mxCell>
        <mxCell id="YPmyPEObN8RT0c44hAZr-44" value="&lt;font style=&quot;font-size: 25px&quot;&gt;UI组件库&lt;/font&gt;" style="rounded=0;whiteSpace=wrap;html=1;fontSize=18;fillColor=none;strokeColor=none;" vertex="1" parent="1">
          <mxGeometry x="820" y="970" width="140" height="40" as="geometry" />
        </mxCell>
        <mxCell id="YPmyPEObN8RT0c44hAZr-45" value="" style="rounded=1;whiteSpace=wrap;html=1;fontSize=18;fillColor=#f8cecc;strokeColor=#b85450;" vertex="1" parent="1">
          <mxGeometry x="940" y="1220" width="220" height="170" as="geometry" />
        </mxCell>
        <mxCell id="YPmyPEObN8RT0c44hAZr-52" value="" style="rounded=1;whiteSpace=wrap;html=1;fontSize=18;fillColor=#ffe6cc;strokeColor=#d79b00;" vertex="1" parent="1">
          <mxGeometry x="560" y="380" width="330" height="280" as="geometry" />
        </mxCell>
        <mxCell id="YPmyPEObN8RT0c44hAZr-53" value="Components" style="rounded=0;whiteSpace=wrap;html=1;fontSize=18;fillColor=none;strokeColor=none;" vertex="1" parent="1">
          <mxGeometry x="685" y="400" width="100" height="40" as="geometry" />
        </mxCell>
        <mxCell id="YPmyPEObN8RT0c44hAZr-54" value="组件包1" style="rounded=1;whiteSpace=wrap;html=1;fontSize=18;fillColor=#fff2cc;strokeColor=#d6b656;" vertex="1" parent="1">
          <mxGeometry x="570" y="450" width="140" height="70" as="geometry" />
        </mxCell>
        <mxCell id="YPmyPEObN8RT0c44hAZr-66" value="组件包2" style="rounded=1;whiteSpace=wrap;html=1;fontSize=18;fillColor=#fff2cc;strokeColor=#d6b656;" vertex="1" parent="1">
          <mxGeometry x="730" y="450" width="140" height="70" as="geometry" />
        </mxCell>
        <mxCell id="YPmyPEObN8RT0c44hAZr-68" value="" style="shape=flexArrow;endArrow=classic;html=1;rounded=0;fontSize=18;fillColor=#000000;strokeColor=#6D1F00;" edge="1" parent="1">
          <mxGeometry width="50" height="50" relative="1" as="geometry">
            <mxPoint x="711.04" y="727.3600000000001" as="sourcePoint" />
            <mxPoint x="710" y="670" as="targetPoint" />
            <Array as="points">
              <mxPoint x="710.04" y="697.36" />
            </Array>
          </mxGeometry>
        </mxCell>
        <mxCell id="YPmyPEObN8RT0c44hAZr-70" value="" style="shape=flexArrow;endArrow=classic;html=1;rounded=0;fontSize=18;strokeColor=#000000;fillColor=#000000;exitX=0.5;exitY=0;exitDx=0;exitDy=0;entryX=0.285;entryY=1;entryDx=0;entryDy=0;entryPerimeter=0;" edge="1" parent="1" source="YPmyPEObN8RT0c44hAZr-37" target="YPmyPEObN8RT0c44hAZr-15">
          <mxGeometry width="50" height="50" relative="1" as="geometry">
            <mxPoint x="1015.37" y="997.3600000000001" as="sourcePoint" />
            <mxPoint x="700" y="900" as="targetPoint" />
            <Array as="points" />
          </mxGeometry>
        </mxCell>
        <mxCell id="YPmyPEObN8RT0c44hAZr-76" value="" style="shape=flexArrow;endArrow=classic;html=1;rounded=0;fontSize=18;strokeColor=#000000;fillColor=#000000;entryX=1;entryY=0.277;entryDx=0;entryDy=0;entryPerimeter=0;" edge="1" parent="1" source="YPmyPEObN8RT0c44hAZr-15" target="YPmyPEObN8RT0c44hAZr-28">
          <mxGeometry width="50" height="50" relative="1" as="geometry">
            <mxPoint x="410" y="687.5" as="sourcePoint" />
            <mxPoint x="370" y="590" as="targetPoint" />
          </mxGeometry>
        </mxCell>
        <mxCell id="YPmyPEObN8RT0c44hAZr-79" value="" style="shape=flexArrow;endArrow=classic;html=1;rounded=0;fontSize=18;strokeColor=#000000;fillColor=#000000;exitX=-0.006;exitY=0.561;exitDx=0;exitDy=0;exitPerimeter=0;" edge="1" parent="1" source="YPmyPEObN8RT0c44hAZr-35">
          <mxGeometry width="50" height="50" relative="1" as="geometry">
            <mxPoint x="520" y="599.1553771533702" as="sourcePoint" />
            <mxPoint x="380" y="1209" as="targetPoint" />
          </mxGeometry>
        </mxCell>
        <mxCell id="YPmyPEObN8RT0c44hAZr-85" value="" style="rounded=1;whiteSpace=wrap;html=1;fontSize=25;fillColor=#e1d5e7;strokeColor=#9673a6;" vertex="1" parent="1">
          <mxGeometry x="1330" y="290" width="230" height="1097.5" as="geometry" />
        </mxCell>
        <mxCell id="YPmyPEObN8RT0c44hAZr-87" value="StoryBook展示" style="rounded=1;whiteSpace=wrap;html=1;fontSize=18;fillColor=#f8cecc;strokeColor=#b85450;" vertex="1" parent="1">
          <mxGeometry x="920" y="350" width="220" height="170" as="geometry" />
        </mxCell>
        <mxCell id="YPmyPEObN8RT0c44hAZr-90" value="" style="shape=flexArrow;endArrow=classic;html=1;rounded=0;fontSize=25;strokeColor=#000000;fillColor=#000000;entryX=0;entryY=0.561;entryDx=0;entryDy=0;exitX=1;exitY=0.5;exitDx=0;exitDy=0;entryPerimeter=0;" edge="1" parent="1" source="YPmyPEObN8RT0c44hAZr-87" target="YPmyPEObN8RT0c44hAZr-107">
          <mxGeometry width="50" height="50" relative="1" as="geometry">
            <mxPoint x="1060" y="920" as="sourcePoint" />
            <mxPoint x="1350" y="1205" as="targetPoint" />
          </mxGeometry>
        </mxCell>
        <mxCell id="YPmyPEObN8RT0c44hAZr-91" value="" style="shape=flexArrow;endArrow=classic;html=1;rounded=0;fontSize=25;strokeColor=#000000;fillColor=#000000;exitX=1;exitY=0.5;exitDx=0;exitDy=0;entryX=0;entryY=0.634;entryDx=0;entryDy=0;entryPerimeter=0;" edge="1" parent="1" source="YPmyPEObN8RT0c44hAZr-36" target="YPmyPEObN8RT0c44hAZr-107">
          <mxGeometry width="50" height="50" relative="1" as="geometry">
            <mxPoint x="1060" y="920" as="sourcePoint" />
            <mxPoint x="1350" y="1190" as="targetPoint" />
          </mxGeometry>
        </mxCell>
        <mxCell id="YPmyPEObN8RT0c44hAZr-92" value="" style="rounded=1;whiteSpace=wrap;html=1;fontSize=25;" vertex="1" parent="1">
          <mxGeometry x="1340" y="360" width="210" height="410" as="geometry" />
        </mxCell>
        <mxCell id="YPmyPEObN8RT0c44hAZr-95" value="lerna多包" style="rounded=1;whiteSpace=wrap;html=1;fontSize=25;fillColor=#d5e8d4;strokeColor=#82b366;" vertex="1" parent="1">
          <mxGeometry x="785" y="770" width="160" height="64.34" as="geometry" />
        </mxCell>
        <mxCell id="YPmyPEObN8RT0c44hAZr-96" value="Lint" style="rounded=1;whiteSpace=wrap;html=1;fontSize=25;" vertex="1" parent="1">
          <mxGeometry x="990" y="1230" width="120" height="60" as="geometry" />
        </mxCell>
        <mxCell id="YPmyPEObN8RT0c44hAZr-97" value="Jest" style="rounded=1;whiteSpace=wrap;html=1;fontSize=25;" vertex="1" parent="1">
          <mxGeometry x="990" y="1310" width="120" height="60" as="geometry" />
        </mxCell>
        <mxCell id="YPmyPEObN8RT0c44hAZr-100" value="" style="rounded=1;whiteSpace=wrap;html=1;fontSize=18;fillColor=#f8cecc;strokeColor=#b85450;" vertex="1" parent="1">
          <mxGeometry x="920" y="550" width="220" height="170" as="geometry" />
        </mxCell>
        <mxCell id="YPmyPEObN8RT0c44hAZr-101" value="Lint" style="rounded=1;whiteSpace=wrap;html=1;fontSize=25;" vertex="1" parent="1">
          <mxGeometry x="970" y="560" width="120" height="60" as="geometry" />
        </mxCell>
        <mxCell id="YPmyPEObN8RT0c44hAZr-102" value="Jest" style="rounded=1;whiteSpace=wrap;html=1;fontSize=25;" vertex="1" parent="1">
          <mxGeometry x="970" y="640" width="120" height="60" as="geometry" />
        </mxCell>
        <mxCell id="YPmyPEObN8RT0c44hAZr-103" value="&lt;span style=&quot;font-size: 25px&quot;&gt;组件数据可视化&lt;/span&gt;" style="rounded=0;whiteSpace=wrap;html=1;fontSize=18;fillColor=none;strokeColor=none;" vertex="1" parent="1">
          <mxGeometry x="1380" y="390" width="135" height="70" as="geometry" />
        </mxCell>
        <mxCell id="YPmyPEObN8RT0c44hAZr-104" value="使用数据UV" style="rounded=1;whiteSpace=wrap;html=1;fontSize=25;fillColor=#dae8fc;strokeColor=#6c8ebf;" vertex="1" parent="1">
          <mxGeometry x="1366.25" y="510" width="147.5" height="60" as="geometry" />
        </mxCell>
        <mxCell id="YPmyPEObN8RT0c44hAZr-105" value="commitLog" style="rounded=1;whiteSpace=wrap;html=1;fontSize=25;fillColor=#dae8fc;strokeColor=#6c8ebf;" vertex="1" parent="1">
          <mxGeometry x="1366.25" y="605" width="145" height="60" as="geometry" />
        </mxCell>
        <mxCell id="YPmyPEObN8RT0c44hAZr-107" value="" style="rounded=1;whiteSpace=wrap;html=1;fontSize=25;" vertex="1" parent="1">
          <mxGeometry x="1340" y="920" width="210" height="410" as="geometry" />
        </mxCell>
        <mxCell id="YPmyPEObN8RT0c44hAZr-108" value="&lt;span style=&quot;font-size: 25px&quot;&gt;组件展示网站&lt;/span&gt;" style="rounded=0;whiteSpace=wrap;html=1;fontSize=18;fillColor=none;strokeColor=none;" vertex="1" parent="1">
          <mxGeometry x="1383.13" y="980" width="135" height="70" as="geometry" />
        </mxCell>
        <mxCell id="YPmyPEObN8RT0c44hAZr-109" value="业务组件库" style="rounded=1;whiteSpace=wrap;html=1;fontSize=25;fillColor=#dae8fc;strokeColor=#6c8ebf;" vertex="1" parent="1">
          <mxGeometry x="1369.38" y="1100" width="147.5" height="60" as="geometry" />
        </mxCell>
        <mxCell id="YPmyPEObN8RT0c44hAZr-110" value="ui组件库" style="rounded=1;whiteSpace=wrap;html=1;fontSize=25;fillColor=#dae8fc;strokeColor=#6c8ebf;" vertex="1" parent="1">
          <mxGeometry x="1375.63" y="1220" width="145" height="60" as="geometry" />
        </mxCell>
        <mxCell id="YPmyPEObN8RT0c44hAZr-111" value="公共Util方法包" style="rounded=1;whiteSpace=wrap;html=1;fontSize=25;fillColor=#f8cecc;strokeColor=#b85450;" vertex="1" parent="1">
          <mxGeometry x="580" y="551.25" width="290" height="80" as="geometry" />
        </mxCell>
        <mxCell id="YPmyPEObN8RT0c44hAZr-112" value="Jest结果" style="rounded=1;whiteSpace=wrap;html=1;fontSize=25;fillColor=#dae8fc;strokeColor=#6c8ebf;" vertex="1" parent="1">
          <mxGeometry x="1367.5" y="690" width="147.5" height="60" as="geometry" />
        </mxCell>
      </root>
    </mxGraphModel>
  </diagram>
</mxfile>
